<?xml version="1.0" encoding="UTF-8"?><svg id="Livello_1" xmlns="http://www.w3.org/2000/svg" viewBox="0 0 9.2812 9.2812"><path d="M9.2812,7.4688c0,.2083-.0729.3854-.2188.5312l-1.0625,1.0625c-.1458.1458-.3229.2188-.5312.2188s-.3854-.0729-.5312-.2188l-2.2969-2.2969-2.2969,2.2969c-.1458.1458-.3229.2188-.5312.2188s-.3854-.0729-.5312-.2188l-1.0625-1.0625c-.1458-.1458-.2188-.3229-.2188-.5312s.0729-.3854.2188-.5312l2.2969-2.2969L.2188,2.3438c-.1458-.1458-.2188-.3229-.2188-.5312s.0729-.3854.2188-.5312L1.2812.2188c.1458-.1458.3229-.2188.5312-.2188s.3854.0729.5312.2188l2.2969,2.2969L6.9375.2188c.1458-.1458.3229-.2188.5312-.2188s.3854.0729.5312.2188l1.0625,1.0625c.1458.1458.2188.3229.2188.5312s-.0729.3854-.2188.5312l-2.2969,2.2969,2.2969,2.2969c.1458.1458.2188.3229.2188.5312Z" fill="#999"/></svg>