<?xml version="1.0" encoding="UTF-8"?>
<svg id="Livello_1" xmlns="http://www.w3.org/2000/svg" version="1.1" viewBox="0 0 13 13">
  <!-- Generator: Adobe Illustrator 29.5.1, SVG Export Plug-In . SVG Version: 2.1.0 Build 141)  -->
  <defs>
    <style>
      .st0 {
        fill: #999;
      }
    </style>
  </defs>
  <path class="st0" d="M11.6,5.8v1.4c0,.2,0,.4-.2.5s-.3.2-.5.2h-3v3c0,.2,0,.4-.2.5s-.3.2-.5.2h-1.4c-.2,0-.4,0-.5-.2s-.2-.3-.2-.5v-3h-3c-.2,0-.4,0-.5-.2s-.2-.3-.2-.5v-1.4c0-.2,0-.4.2-.5s.3-.2.5-.2h3v-3c0-.2,0-.4.2-.5s.3-.2.5-.2h1.4c.2,0,.4,0,.5.2s.2.3.2.5v3h3c.2,0,.4,0,.5.2s.2.3.2.5Z"/>
</svg>