<?xml version="1.0" encoding="UTF-8"?>
<svg id="Livello_1" xmlns="http://www.w3.org/2000/svg" version="1.1" viewBox="0 0 13 13">
  <!-- Generator: Adobe Illustrator 29.5.1, SVG Export Plug-In . SVG Version: 2.1.0 Build 141)  -->
  <defs>
    <style>
      .st0 {
        fill: #999;
      }
    </style>
  </defs>
  <path class="st0" d="M8.7,6.8l-.9-.9c0-.3,0-.7-.3-1-.3-.3-.6-.4-1-.4l-.9-.9c.1,0,.3-.1.4-.1s.3,0,.5,0c.7,0,1.2.2,1.7.7s.7,1,.7,1.7,0,.3,0,.5,0,.3-.1.4ZM10.5,8.5l-.8-.8c.3-.3.6-.5.9-.8.3-.3.5-.6.7-1-.4-.9-1.1-1.6-1.9-2.1s-1.7-.8-2.8-.8-.5,0-.7,0c-.2,0-.5,0-.7.1l-.9-.9c.4-.2.7-.3,1.1-.3.4,0,.8-.1,1.2-.1,1.4,0,2.6.4,3.6,1.1,1.1.8,1.8,1.7,2.3,3-.2.5-.5,1-.8,1.5-.3.5-.7.9-1.2,1.2ZM10.6,11.8l-2.2-2.2c-.3,0-.6.2-.9.2-.3,0-.7,0-1,0-1.4,0-2.6-.4-3.6-1.1-1.1-.8-1.8-1.7-2.3-3,.2-.5.4-.9.7-1.3.3-.4.6-.8,1-1.1L.8,2l.8-.8,9.8,9.8s-.8.8-.8.8ZM3,4.3c-.3.2-.5.5-.7.7-.2.3-.4.6-.5.9.4.9,1.1,1.6,1.9,2.1.8.5,1.7.8,2.8.8s.3,0,.5,0c.2,0,.3,0,.5,0l-.5-.5c0,0-.2,0-.3,0,0,0-.2,0-.3,0-.7,0-1.2-.2-1.7-.7s-.7-1-.7-1.7,0-.2,0-.2,0-.2,0-.3c0,0-1.1-1.1-1.1-1.1Z"/>
</svg>