<?xml version="1.0" encoding="UTF-8"?>
<svg id="Livello_1" xmlns="http://www.w3.org/2000/svg" version="1.1" viewBox="0 0 13 13">
  <!-- Generator: Adobe Illustrator 29.5.1, SVG Export Plug-In . SVG Version: 2.1.0 Build 141)  -->
  <defs>
    <style>
      .st0 {
        fill: #999;
      }
    </style>
  </defs>
  <path class="st0" d="M6.5,8.3c.7,0,1.2-.2,1.7-.7s.7-1,.7-1.7-.2-1.2-.7-1.7-1-.7-1.7-.7-1.2.2-1.7.7-.7,1-.7,1.7.2,1.2.7,1.7,1,.7,1.7.7ZM6.5,7.3c-.4,0-.7-.1-1-.4-.3-.3-.4-.6-.4-1s.1-.7.4-1c.3-.3.6-.4,1-.4s.7.1,1,.4c.3.3.4.6.4,1s-.1.7-.4,1c-.3.3-.6.4-1,.4ZM6.5,10c-1.3,0-2.5-.4-3.6-1.1-1.1-.7-1.9-1.7-2.3-3,.5-1.2,1.3-2.2,2.3-3,1.1-.7,2.3-1.1,3.6-1.1s2.5.4,3.6,1.1c1.1.7,1.9,1.7,2.3,3-.5,1.2-1.3,2.2-2.3,3-1.1.7-2.3,1.1-3.6,1.1ZM6.5,8.8c1,0,1.9-.3,2.8-.8s1.5-1.2,1.9-2.1c-.4-.9-1.1-1.6-1.9-2.1s-1.8-.8-2.8-.8-1.9.3-2.8.8c-.8.5-1.5,1.2-1.9,2.1.4.9,1.1,1.6,1.9,2.1s1.8.8,2.8.8Z"/>
</svg>