<?xml version="1.0" encoding="UTF-8"?>
<svg id="Livello_1" xmlns="http://www.w3.org/2000/svg" version="1.1" viewBox="0 0 15 15" width="15" height="15">
  <!-- Generator: Adobe Illustrator 29.5.1, SVG Export Plug-In . SVG Version: 2.1.0 Build 141)  -->
  <defs>
    <style>
      .st0 {
        fill: #999;
      }
    </style>
  </defs>
  <path class="st0" d="M13.8,14.7l-5.2-5.2c-.4.3-.9.6-1.4.8-.5.2-1.1.3-1.7.3-1.5,0-2.7-.5-3.7-1.5-1-1-1.5-2.2-1.5-3.6S.8,2.8,1.8,1.8C2.8.8,4,.3,5.4.3s2.6.5,3.6,1.5c1,1,1.5,2.2,1.5,3.6s0,1.1-.3,1.6c-.2.5-.5,1-.8,1.5l5.3,5.2s-1,1-1,1ZM5.4,9.2c1.1,0,1.9-.4,2.7-1.1.7-.7,1.1-1.6,1.1-2.7s-.4-1.9-1.1-2.7c-.7-.7-1.6-1.1-2.7-1.1s-2,.4-2.7,1.1c-.7.7-1.1,1.6-1.1,2.7s.4,1.9,1.1,2.7c.7.7,1.6,1.1,2.7,1.1Z"/>
</svg>
